<?xml version="1.0" encoding="UTF-8" standalone="no"?>
<svg
   shape-rendering="geometricPrecision"
   text-rendering="geometricPrecision"
   image-rendering="optimizeQuality"
   fill-rule="evenodd"
   clip-rule="evenodd"
   viewBox="0 0 313 512.52"
   version="1.1"
   id="svg4"
   sodipodi:docname="car-top-view-icon.svg"
   inkscape:version="1.2.1 (9c6d41e410, 2022-07-14)"
   xmlns:inkscape="http://www.inkscape.org/namespaces/inkscape"
   xmlns:sodipodi="http://sodipodi.sourceforge.net/DTD/sodipodi-0.dtd"
   xmlns="http://www.w3.org/2000/svg"
   xmlns:svg="http://www.w3.org/2000/svg">
  <defs
     id="defs8" />
  <sodipodi:namedview
     id="namedview6"
     pagecolor="#ffffff"
     bordercolor="#000000"
     borderopacity="0.25"
     inkscape:showpageshadow="2"
     inkscape:pageopacity="0.0"
     inkscape:pagecheckerboard="0"
     inkscape:deskcolor="#d1d1d1"
     showgrid="false"
     inkscape:zoom="0.81655347"
     inkscape:cx="-42.863084"
     inkscape:cy="281.6717"
     inkscape:window-width="1920"
     inkscape:window-height="1017"
     inkscape:window-x="-8"
     inkscape:window-y="-8"
     inkscape:window-maximized="1"
     inkscape:current-layer="svg4" />
  <path
     stroke="#000"
     stroke-width=".5"
     stroke-miterlimit="22.926"
     d="M42.3 110.94c2.22 24.11 2.48 51.07 1.93 79.75-13.76.05-24.14 1.44-32.95 6.69-4.96 2.96-8.38 6.28-10.42 12.15-1.37 4.3-.36 7.41 2.31 8.48 4.52 1.83 22.63-.27 28.42-1.54 2.47-.54 4.53-1.28 5.44-2.33.55-.63 1-1.4 1.35-2.31 1.49-3.93.23-8.44 3.22-12.08.73-.88 1.55-1.37 2.47-1.61-1.46 62.21-6.21 131.9-2.88 197.88 0 43.41 1 71.27 43.48 97.95 41.46 26.04 117.93 25.22 155.25-8.41 32.44-29.23 30.38-50.72 30.38-89.54 5.44-70.36 1.21-134.54-.79-197.69.69.28 1.32.73 1.89 1.42 2.99 3.64 1.73 8.15 3.22 12.08.35.91.8 1.68 1.35 2.31.91 1.05 2.97 1.79 5.44 2.33 5.79 1.27 23.9 3.37 28.42 1.54 2.67-1.07 3.68-4.18 2.31-8.48-2.04-5.87-5.46-9.19-10.42-12.15-8.7-5.18-18.93-6.6-32.44-6.69-.75-25.99-1.02-51.83-.01-77.89C275.52-48.32 29.74-25.45 42.3 110.94zm69.63-90.88C83.52 30.68 62.75 48.67 54.36 77.59c21.05-15.81 47.13-39.73 57.57-57.53zm89.14-4.18c28.41 10.62 49.19 28.61 57.57 57.53-21.05-15.81-47.13-39.73-57.57-57.53zM71.29 388.22l8.44-24.14c53.79 8.36 109.74 7.72 154.36-.15l7.61 22.8c-60.18 28.95-107.37 32.1-170.41 1.49zm185.26-34.13c5.86-34.1 4.8-86.58-1.99-120.61-12.64 47.63-9.76 74.51 1.99 120.61zM70.18 238.83l-10.34-47.2c45.37-57.48 148.38-53.51 193.32 0l-12.93 47.2c-57.58-14.37-114.19-13.21-170.05 0zM56.45 354.09c-5.86-34.1-4.8-86.58 1.99-120.61 12.63 47.63 9.76 74.51-1.99 120.61z"
     id="path2" />
  <path
     style="fill:#ffffff;stroke:none;stroke-width:0.398063;stroke-linecap:round"
     d="m 70.430491,237.1247 c -0.140338,-0.42097 -2.345216,-10.4096 -4.899728,-22.19695 -2.554512,-11.78735 -4.765344,-21.77803 -4.912959,-22.20152 -0.388518,-1.11461 6.346979,-8.70175 12.152899,-13.68952 21.4396,-18.41843 49.851857,-28.27213 81.536397,-28.27776 17.00318,-0.003 30.47232,2.10951 45.9946,7.21391 18.751,6.16615 34.52098,15.7115 47.21847,28.58067 l 5.03757,5.10569 -6.31944,22.96237 c -6.1124,22.21006 -6.36772,22.96035 -7.79306,22.90097 -0.81049,-0.0337 -6.15794,-1.04625 -11.88322,-2.24995 -22.08826,-4.64392 -38.77637,-6.49258 -63.06997,-6.98674 -29.70741,-0.60428 -53.68536,1.6412 -83.357845,7.80628 -10.033026,2.08457 -9.376305,2.01469 -9.703714,1.03255 z"
     id="path995" />
  <path
     style="fill:#ffffff;stroke:none;stroke-width:0.398063;stroke-linecap:round"
     d="m 256.06767,349.33414 c -1.11343,-2.58882 -5.51019,-23.65557 -7.22053,-34.59664 -2.40731,-15.39961 -2.24339,-37.84963 0.39344,-53.88502 1.34871,-8.20188 4.6885,-22.96236 5.1956,-22.96236 0.24346,0 0.60924,1.04179 0.81285,2.31508 1.02372,6.40205 2.85194,22.32033 3.53173,30.75072 1.00132,12.41802 1.00655,48.01209 0.009,59.41357 -1.02485,11.7103 -2.23008,20.10795 -2.72181,18.96465 z"
     id="path997" />
  <path
     style="fill:#ffffff;stroke:none;stroke-width:0.398063;stroke-linecap:round"
     d="m 144.20366,408.98444 c -1.17873,-0.1368 -4.76086,-0.54766 -7.96029,-0.91302 -11.95484,-1.36517 -28.17504,-5.43441 -41.195084,-10.3348 -11.188642,-4.2111 -22.810746,-9.62203 -22.61755,-10.53011 0.159556,-0.74997 7.53084,-22.11088 7.718439,-22.36692 0.04391,-0.0599 3.79663,0.41715 8.339381,1.06017 13.923454,1.97087 33.683514,3.60947 52.464164,4.35059 28.93394,1.1418 62.62051,-0.70688 86.76918,-4.76179 2.9954,-0.50298 5.64762,-0.69247 5.89381,-0.42109 0.24619,0.27137 1.90028,4.90218 3.67576,10.29068 1.77548,5.3885 3.34089,10.10528 3.47867,10.48173 0.14203,0.38804 -3.41637,2.30303 -8.21642,4.42176 -29.05837,12.82636 -50.86302,18.2644 -75.18497,18.75101 -6.06206,0.12129 -11.98635,0.10859 -13.16509,-0.0282 z"
     id="path999" />
  <path
     style="fill:#ffffff;stroke:none;stroke-width:0.398063;stroke-linecap:round"
     d="m 56.421216,349.33414 c -0.811579,-2.10767 -2.261667,-18.46542 -2.885238,-32.54699 -0.979363,-22.11613 0.346677,-49.40942 3.476201,-71.54908 0.547461,-3.87298 1.191057,-7.25572 1.430214,-7.5172 0.945821,-1.0341 5.540969,22.42121 6.794165,34.67988 1.057511,10.3445 0.452726,32.68172 -1.162856,42.94908 -2.250169,14.3003 -7.040459,35.57374 -7.652486,33.98431 z"
     id="path1001" />
  <path
     style="fill:#ffffff;stroke:none;stroke-width:0.398063;stroke-linecap:round"
     d="m 56.028174,74.407923 c 0,-0.33136 1.071812,-3.088564 2.381805,-6.127119 6.391755,-14.825809 15.860035,-26.10036 29.766337,-35.444882 5.567009,-3.740825 16.819504,-9.679749 20.431744,-10.783617 l 1.45035,-0.443214 -1.14419,1.941818 c -4.79732,8.141632 -25.775833,29.733078 -41.856954,43.079894 -5.552957,4.608777 -10.306167,8.379594 -10.562689,8.379594 -0.256521,0 -0.466403,-0.271113 -0.466403,-0.602474 z"
     id="path1003" />
  <path
     style="fill:#ffffff;stroke:none;stroke-width:0.398063;stroke-linecap:round"
     d="M 249.61456,65.501338 C 230.31912,49.697859 212.13602,31.398842 204.64162,20.241691 c -0.89203,-1.327981 -1.49075,-2.545622 -1.33051,-2.705868 0.16025,-0.160246 4.49284,1.80992 9.62798,4.378147 19.36469,9.684824 31.78048,21.700476 39.99565,38.706677 3.34493,6.924327 4.46606,10.114999 3.54473,10.08809 -0.28909,-0.0084 -3.3783,-2.351773 -6.86491,-5.207399 z"
     id="path1005" />
  <path
     style="fill:#0006ff;stroke:none;stroke-width:0.398063;stroke-linecap:round;fill-opacity:1"
     d="M 146.03054,511.61711 C 111.65607,509.28121 83.491624,497.25068 63.139105,476.20976 51.298311,463.96848 45.169934,450.13791 42.874085,430.47553 40.72791,412.095 39.826693,333.4228 41.271197,290.55048 c 0.736562,-21.86091 2.219439,-64.44948 2.851617,-81.89911 0.321899,-8.88521 0.244895,-10.56269 -0.484874,-10.56269 -1.995293,0 -3.596462,2.87108 -4.4831,8.03872 -1.034703,6.0306 -1.787658,7.68429 -4.025782,8.84167 -2.646147,1.36837 -12.364136,2.75638 -21.984939,3.14008 -8.8781996,0.35409 -8.9041294,0.35118 -10.7069914,-1.19958 -2.33122143,-2.00523 -2.34159038,-5.18597 -0.032292,-9.906 2.9672894,-6.06493 10.8367134,-11.40566 20.4157964,-13.85558 3.46414,-0.88598 16.589374,-2.38792 21.023805,-2.40578 0.202963,-6.1e-4 0.55512,-5.85689 0.782572,-13.01349 0.477356,-15.01967 -0.390867,-46.08341 -1.792077,-64.11781 C 41.065636,90.838999 43.675351,75.594645 52.209338,58.851365 67.825307,28.21357 101.17927,7.1253362 142.979,1.4617109 c 8.35964,-1.1326834 26.28612,-0.97659827 35.144,0.3059974 45.06467,6.5252324 76.89842,33.6423847 87.29477,74.3608707 3.22845,12.644573 3.27138,13.486796 3.33532,65.420931 0.0328,26.66146 0.22376,48.63979 0.4243,48.84073 0.20055,0.20094 3.94685,0.63795 8.32513,0.97115 4.37827,0.33319 10.09494,1.1517 12.70369,1.8189 12.32074,3.15112 20.77483,10.37336 22.14061,18.91451 0.3548,2.21882 0.19485,2.67366 -1.55591,4.42443 l -1.95137,1.95137 -8.99145,-0.35806 c -9.99539,-0.39804 -18.49849,-1.63526 -21.70888,-3.15869 -2.56332,-1.21638 -3.34217,-2.79656 -4.13554,-8.39058 -0.33437,-2.35762 -0.85583,-4.74976 -1.1588,-5.31585 -0.71687,-1.33949 -3.04001,-3.43644 -3.40393,-3.07252 -0.15555,0.15555 0.25147,14.45941 0.90449,31.78636 2.22306,58.98591 2.72487,90.46648 1.89102,118.63372 -0.41581,14.04618 -1.01351,28.84509 -1.32821,32.88647 -0.31471,4.04137 -0.818,17.2677 -1.11844,29.39183 -0.58253,23.5083 -1.16595,28.85242 -4.10599,37.61062 -3.76011,11.2012 -9.84642,20.56709 -20.13957,30.99171 -10.58088,10.71601 -20.52361,17.39638 -33.36476,22.41725 -19.91833,7.78803 -43.54043,11.26061 -66.14894,9.72425 z m 30.81779,-103.12536 c 18.66307,-3.00614 38.17895,-9.14893 58.59247,-18.4425 3.5362,-1.6099 6.49398,-2.97489 6.57283,-3.03328 0.0788,-0.0584 -1.60389,-5.32301 -3.73944,-11.69913 -2.70441,-8.07461 -4.1417,-11.55418 -4.73584,-11.46519 -31.11635,4.66038 -41.00077,5.35992 -75.55727,5.34729 -32.12293,-0.0118 -39.24414,-0.41424 -65.404828,-3.69667 -7.009461,-0.87949 -12.870902,-1.47264 -13.02543,-1.31812 -0.154527,0.15453 -2.170752,5.62515 -4.480496,12.15694 l -4.199541,11.87599 2.222891,1.17454 c 1.222584,0.646 4.702822,2.26458 7.733854,3.59685 18.945122,8.32714 38.10389,13.90142 55.23677,16.07125 8.71906,1.10424 32.45454,0.77369 40.78403,-0.56797 z M 59.921214,341.06768 c 7.761298,-34.16098 8.889436,-55.33825 4.371024,-82.05219 -1.696447,-10.0298 -5.233724,-25.41168 -5.843769,-25.41168 -0.473385,0 -0.700644,1.1892 -2.40297,12.57434 -2.601798,17.40078 -3.326722,29.42437 -3.321365,55.0881 0.0039,18.71137 0.251333,26.8588 1.04816,34.51448 1.288503,12.37958 2.301114,18.65996 2.905577,18.02088 0.25352,-0.26803 1.713024,-5.9983 3.243343,-12.73393 z M 257.1205,351.93654 c 0.18188,-0.58937 0.7426,-4.51594 1.24603,-8.7257 3.59173,-30.03397 2.69427,-72.7429 -2.14154,-101.91281 -1.1526,-6.95258 -1.49288,-8.22568 -2.04288,-7.6432 -0.1325,0.14033 -1.08066,3.97505 -2.10701,8.52159 -6.62193,29.33387 -7.60868,48.7057 -3.78964,74.39807 1.82206,12.25785 7.15926,36.43362 8.04331,36.43362 0.25358,0 0.60985,-0.48221 0.79173,-1.07157 z M 80.03122,237.00349 c 50.19954,-10.81768 102.37589,-10.81876 150.6393,-0.003 5.12929,1.14946 9.5076,1.88876 9.72957,1.64291 0.5234,-0.57979 12.79827,-45.57884 12.79827,-46.9179 0,-1.23734 -9.31815,-10.6446 -14.38975,-14.52736 -17.8857,-13.6931 -38.85131,-22.34447 -63.06997,-26.02556 -9.07353,-1.37913 -31.38313,-1.56248 -39.80143,-0.32711 -29.68695,4.35648 -53.214011,15.70769 -70.571007,34.04869 -3.115228,3.29183 -5.66405,6.34627 -5.66405,6.78762 0,0.88244 9.641787,45.39617 10.122399,46.73259 0.19556,0.5438 0.814288,0.70094 1.792834,0.45534 0.82182,-0.20627 4.608045,-1.04603 8.413834,-1.86616 z M 62.151472,71.937273 C 76.967991,60.144706 92.652334,45.339116 101.7318,34.574515 c 5.36749,-6.36368 10.87853,-14.285026 10.11537,-14.539414 -0.87645,-0.292148 -11.02664,4.244703 -17.417622,7.785182 -15.518084,8.596722 -28.217356,21.663417 -35.151159,36.168178 -2.090242,4.372561 -5.087204,12.41607 -5.087204,13.653485 0,0.672368 -0.522238,1.046624 7.960287,-5.704673 z M 256.57821,66.384404 c -8.43515,-21.841386 -25.02124,-38.013091 -49.85156,-48.606078 -2.8267,-1.205912 -5.28409,-2.047931 -5.46086,-1.871155 -0.86346,0.863458 5.59087,9.582633 14.35777,19.39596 11.22571,12.565634 42.47203,39.936529 42.96561,37.636667 0.1023,-0.476687 -0.80263,-3.426616 -2.01096,-6.555394 z"
     id="path1009" />
</svg>
